<svg width="16" height="16" viewBox="0 0 16 16" fill="none" xmlns="http://www.w3.org/2000/svg">
<path d="M8 9.58666C8.87629 9.58666 9.58666 8.87629 9.58666 8C9.58666 7.1237 8.87629 6.41333 8 6.41333C7.12371 6.41333 6.41333 7.1237 6.41333 8C6.41333 8.87629 7.12371 9.58666 8 9.58666Z" fill="#EC2A2A"/>
<path d="M13.3334 12.5001C13.2268 12.5001 13.1268 12.4667 13.0334 12.4001C12.8134 12.2334 12.7668 11.9201 12.9334 11.7001C13.7401 10.6267 14.1668 9.34673 14.1668 8.00006C14.1668 6.65339 13.7401 5.37339 12.9334 4.30006C12.7668 4.08006 12.8134 3.76673 13.0334 3.60006C13.2534 3.43339 13.5668 3.48006 13.7334 3.70006C14.6734 4.94673 15.1668 6.43339 15.1668 8.00006C15.1668 9.56673 14.6734 11.0534 13.7334 12.3001C13.6334 12.4334 13.4868 12.5001 13.3334 12.5001Z" fill="#EC2A2A"/>
<path d="M2.66659 12.5001C2.51325 12.5001 2.36659 12.4334 2.26659 12.3001C1.32659 11.0534 0.833252 9.56673 0.833252 8.00006C0.833252 6.43339 1.32659 4.94673 2.26659 3.70006C2.43325 3.48006 2.74659 3.43339 2.96659 3.60006C3.18659 3.76673 3.23325 4.08006 3.06659 4.30006C2.25992 5.37339 1.83325 6.65339 1.83325 8.00006C1.83325 9.34673 2.25992 10.6267 3.06659 11.7001C3.23325 11.9201 3.18659 12.2334 2.96659 12.4001C2.87992 12.4667 2.77325 12.5001 2.66659 12.5001Z" fill="#EC2A2A"/>
<path d="M11.1999 10.9C11.0932 10.9 10.9932 10.8667 10.8999 10.8C10.6799 10.6334 10.6332 10.32 10.7999 10.1C11.2599 9.49337 11.4999 8.7667 11.4999 8.00004C11.4999 7.23337 11.2599 6.5067 10.7999 5.90004C10.6332 5.68004 10.6799 5.3667 10.8999 5.20004C11.1199 5.03337 11.4332 5.08004 11.5999 5.30004C12.1866 6.0867 12.4999 7.02004 12.4999 8.00004C12.4999 8.98004 12.1866 9.92004 11.5999 10.7C11.4999 10.8334 11.3532 10.9 11.1999 10.9Z" fill="#EC2A2A"/>
<path d="M4.8 10.9C4.64667 10.9 4.5 10.8334 4.4 10.7C3.81333 9.92004 3.5 8.98004 3.5 8.00004C3.5 7.02004 3.81333 6.08004 4.4 5.30004C4.56667 5.08004 4.88 5.03337 5.1 5.20004C5.32 5.3667 5.36667 5.68004 5.2 5.90004C4.74 6.5067 4.5 7.23337 4.5 8.00004C4.5 8.7667 4.74 9.49337 5.2 10.1C5.36667 10.32 5.32 10.6334 5.1 10.8C5.01333 10.8667 4.90667 10.9 4.8 10.9Z" fill="#EC2A2A"/>
</svg>
